<?xml version="1.0" encoding="UTF-8"?>
<svg xmlns="http://www.w3.org/2000/svg" xmlns:xlink="http://www.w3.org/1999/xlink" width="22px" height="25px" viewBox="0 0 22 25" version="1.1">
<g id="surface1">
<path style=" stroke:none;fill-rule:nonzero;fill:rgb(91.372549%,79.215686%,19.607843%);fill-opacity:1;" d="M 1.84375 22.382812 L 0 0.0429688 L 22 0.0859375 L 20.050781 22.382812 L 11.082031 24.957031 Z M 1.84375 22.382812 "/>
<path style=" stroke:none;fill-rule:nonzero;fill:rgb(100%,87.058824%,14.509804%);fill-opacity:1;" d="M 11.082031 22.800781 L 11.082031 2.167969 L 20.144531 2.199219 L 18.527344 20.65625 Z M 11.082031 22.800781 "/>
<path style=" stroke:none;fill-rule:nonzero;fill:rgb(100%,100%,100%);fill-opacity:1;" d="M 10.113281 4.617188 L 7.71875 4.617188 L 7.71875 18.351562 L 5.855469 18 L 5.855469 16.148438 L 3.636719 15.796875 L 3.636719 19.933594 L 10.113281 21.609375 Z M 11.910156 4.617188 L 18.539062 4.617188 L 18.097656 7.25 L 14.441406 7.25 L 14.441406 11.570312 L 18.097656 11.570312 L 17.652344 20.289062 L 11.910156 21.609375 L 11.910156 18.878906 L 15.789062 17.558594 L 16.015625 13.949219 L 11.910156 14.539062 Z M 11.910156 4.617188 "/>
</g>
</svg>
